<svg xmlns="http://www.w3.org/2000/svg" viewBox="0 0 32 32" fill="none">
  <path d="M16 4C14 8 8 10 8 16C8 22 12 28 16 28C20 28 24 22 24 16C24 10 18 8 16 4Z" fill="#ec4899" opacity="0.2"/>
  <path d="M16 4C14 8 8 10 8 16C8 22 12 28 16 28C20 28 24 22 24 16C24 10 18 8 16 4Z" stroke="#ec4899" stroke-width="2" stroke-linecap="round" stroke-linejoin="round"/>
  <path d="M16 12C15 14 13 15 13 18C13 21 14.5 24 16 24C17.5 24 19 21 19 18C19 15 17 14 16 12Z" fill="#ec4899"/>
  <path d="M16 28V20" stroke="#ec4899" stroke-width="2"/>
</svg>
